<svg width="21" height="19" viewBox="0 0 21 19" fill="none" xmlns="http://www.w3.org/2000/svg">
<path d="M12.8771 18.2138C13.4786 18.2138 14.0555 17.9748 14.4809 17.5494C14.9062 17.1241 15.1452 16.5472 15.1452 15.9456C15.1452 15.3441 14.9062 14.7672 14.4809 14.3418C14.0555 13.9164 13.4786 13.6775 12.8771 13.6775C12.2755 13.6775 11.6986 13.9164 11.2732 14.3418C10.8479 14.7672 10.6089 15.3441 10.6089 15.9456C10.6089 16.5472 10.8479 17.1241 11.2732 17.5494C11.6986 17.9748 12.2755 18.2138 12.8771 18.2138ZM4.93855 18.2138C5.5401 18.2138 6.11701 17.9748 6.54237 17.5494C6.96773 17.1241 7.2067 16.5472 7.2067 15.9456C7.2067 15.3441 6.96773 14.7672 6.54237 14.3418C6.11701 13.9164 5.5401 13.6775 4.93855 13.6775C4.337 13.6775 3.76009 13.9164 3.33473 14.3418C2.90937 14.7672 2.67041 15.3441 2.67041 15.9456C2.67041 16.5472 2.90937 17.1241 3.33473 17.5494C3.76009 17.9748 4.337 18.2138 4.93855 18.2138ZM19.7246 2.24942C20.0077 2.24029 20.2762 2.12141 20.4732 1.91792C20.6702 1.71442 20.7804 1.44227 20.7804 1.15901C20.7804 0.875759 20.6702 0.603607 20.4732 0.400113C20.2762 0.196618 20.0077 0.0777349 19.7246 0.0686035H18.4193C17.3963 0.0686035 16.5118 0.778533 16.2895 1.77652L14.8685 8.17495C14.6462 9.17294 13.7616 9.88287 12.7387 9.88287H4.21955L2.58422 3.33927H13.1821C13.4626 3.32647 13.7273 3.20606 13.9212 3.00307C14.1151 2.80009 14.2234 2.53016 14.2234 2.24942C14.2234 1.96869 14.1151 1.69876 13.9212 1.49577C13.7273 1.29279 13.4626 1.17238 13.1821 1.15958H2.58422C2.25269 1.15948 1.9255 1.23497 1.62753 1.38031C1.32956 1.52565 1.06864 1.73701 0.86462 1.99832C0.660597 2.25964 0.518837 2.56403 0.450117 2.88836C0.381397 3.21268 0.387527 3.54841 0.468039 3.87001L2.10337 10.4113C2.22126 10.8833 2.49359 11.3024 2.87704 11.6018C3.2605 11.9012 3.73305 12.0638 4.21955 12.0637H12.7387C13.7312 12.0638 14.6942 11.7254 15.4684 11.1044C16.2426 10.4833 16.7819 9.61679 16.9971 8.64786L18.4193 2.24942H19.7246Z" fill="white"/>
</svg>
