<svg width="14" height="14" viewBox="0 0 14 14" fill="none" xmlns="http://www.w3.org/2000/svg">
<path d="M1.16298 13.9039H1.2377L4.69941 13.5884C5.07862 13.5506 5.43329 13.3836 5.70389 13.1152L13.1752 5.64388C13.4652 5.33753 13.6219 4.92872 13.611 4.50702C13.6001 4.08533 13.4225 3.68515 13.1171 3.39418L10.8425 1.11957C10.5456 0.840724 10.1566 0.680723 9.74948 0.670009C9.34233 0.659294 8.94544 0.798613 8.63432 1.06146L1.16298 8.5328C0.894651 8.8034 0.727574 9.15807 0.689798 9.53728L0.332835 12.999C0.321652 13.1206 0.337429 13.2431 0.379042 13.3579C0.420655 13.4727 0.487078 13.5769 0.573578 13.6631C0.651147 13.7401 0.743141 13.8009 0.844284 13.8422C0.945427 13.8836 1.05373 13.9045 1.16298 13.9039ZM9.68861 2.28178L11.9549 4.54809L10.2946 6.16688L8.06982 3.94208L9.68861 2.28178ZM2.30029 9.6784L6.97402 5.03788L9.21542 7.27928L4.56659 11.9281L2.07615 12.1605L2.30029 9.6784Z" fill="#A1A1A1"/>
</svg>
