<svg width="48" height="39" viewBox="0 0 48 39" fill="none" xmlns="http://www.w3.org/2000/svg">
<path d="M32.6417 35.951L32.6417 35.9509C32.1582 36.0672 31.6487 36.1398 31.1988 36.2039C31.0597 36.2237 30.9264 36.2427 30.8013 36.2619C30.6058 36.2926 30.4024 36.3274 30.1921 36.3634C29.1265 36.5458 27.8871 36.7579 26.6375 36.6098C26.5416 36.6099 26.4444 36.6102 26.3463 36.6104C25.8602 36.6118 25.3495 36.6132 24.847 36.5929C22.8327 36.5417 20.8464 36.2964 18.8818 35.8929C18.8814 35.8928 18.881 35.8927 18.8806 35.8926L19.0818 34.9131C16.3721 34.3639 13.7737 33.4622 11.3387 32.0278C8.90362 30.5934 6.80266 28.7163 5.11743 26.2901L32.6417 35.951ZM32.6417 35.951L32.6524 35.9482M32.6417 35.951L32.6524 35.9482M34.3082 5.51963C34.156 5.43979 34.0047 5.35781 33.8536 5.27587C33.415 5.03814 32.9773 4.80086 32.5191 4.61799C31.4723 4.20815 30.3736 4.077 29.2748 3.95405L34.3082 5.51963ZM34.3082 5.51963C34.6312 5.68766 34.9504 5.85979 35.2696 6.03193C35.5889 6.20406 35.9081 6.37619 36.231 6.54422L34.3082 5.51963ZM32.6524 35.9482C33.131 35.8275 33.6064 35.6488 34.0198 35.4934C34.1132 35.4582 34.2034 35.4243 34.2898 35.3925L34.2936 35.3911M32.6524 35.9482L34.2936 35.3911M34.2936 35.3911C34.5538 35.2942 34.8147 35.1861 35.0561 35.0861C35.1096 35.064 35.1621 35.0422 35.2134 35.0211C35.5066 34.9003 35.7743 34.7937 36.0371 34.7078L36.0394 34.707M34.2936 35.3911L36.0394 34.707M36.0394 34.707C37.1955 34.3257 38.2133 33.6633 39.1081 33.081C39.2149 33.0115 39.3199 32.9431 39.4232 32.8765L39.4238 32.8761M36.0394 34.707L39.4238 32.8761M39.4238 32.8761C39.6636 32.7213 39.8907 32.5854 40.1341 32.4398C40.2749 32.3556 40.4213 32.268 40.5787 32.1717M39.4238 32.8761L40.5787 32.1717M40.5787 32.1717C39.6045 33.042 38.5505 33.8039 37.4277 34.4714C35.6903 35.5012 33.8816 36.2755 31.9857 36.7832L31.9819 36.7842C31.169 37.0053 30.3383 37.1262 29.4392 37.2571C29.2858 37.2794 29.1305 37.302 28.9729 37.3254C28.0177 37.4665 27.0668 37.579 26.0962 37.6939C25.7869 37.7305 25.4756 37.7674 25.1615 37.8054C24.3838 37.8975 23.5807 37.8436 22.7145 37.7401C20.637 37.4798 18.6018 36.9664 16.5927 36.2429L40.5787 32.1717ZM45.6708 18.0211C45.6151 17.7773 45.5531 17.5349 45.4846 17.2938C45.4845 17.2935 45.4844 17.2932 45.4844 17.2929L46.4463 17.0196L45.6708 18.0211ZM45.6708 18.0211C45.395 17.1743 44.9905 16.3736 44.4461 15.6327M45.6708 18.0211L32.1514 5.54797C31.2457 5.19393 30.2751 5.07223 29.1636 4.94785L29.1602 4.94747C29.1232 4.94319 29.0864 4.93894 29.05 4.93472C28.0709 4.82143 27.305 4.7328 26.561 4.90747C26.5605 4.90783 26.5599 4.9082 26.5594 4.90859C26.5545 4.91197 26.549 4.91594 26.5431 4.92046C26.481 4.97481 26.4147 5.04018 26.3287 5.12763C26.3157 5.14086 26.3019 5.1549 26.2875 5.16959C26.2104 5.24832 26.115 5.3457 26.0175 5.43693C25.9921 5.46091 25.9664 5.48415 25.9411 5.50642C25.946 5.50863 25.9509 5.51087 25.9559 5.51312C26.09 5.57407 26.2573 5.65018 26.4151 5.7333L26.4154 5.73344C26.927 6.00322 27.4353 6.28812 27.9281 6.56843L27.9364 6.57318L27.9447 6.57809C28.0228 6.62452 28.0924 6.67174 28.1455 6.7085C28.1739 6.72815 28.1943 6.74245 28.2118 6.75477C28.2348 6.77087 28.2529 6.78359 28.2778 6.80045C28.3099 6.82221 28.3287 6.83349 28.337 6.83834C28.9221 7.03173 29.5206 7.22236 30.1249 7.41487C31.2869 7.78499 32.4706 8.16206 33.6231 8.57899M44.4461 15.6327C44.4462 15.6329 44.4464 15.6331 44.4465 15.6333L43.6409 16.2239L44.4459 15.6324C44.446 15.6325 44.446 15.6326 44.4461 15.6327ZM44.4461 15.6327C44.0998 15.1605 43.6492 14.7362 43.2846 14.3928C43.1828 14.297 43.0877 14.2074 43.0035 14.1249L43.0009 14.1224C42.6173 13.7494 42.2508 13.3995 41.8886 13.0538C41.4526 12.6377 41.0229 12.2275 40.577 11.79C40.0713 11.2916 39.5124 10.9188 38.8502 10.6614L38.8474 10.6603C38.1702 10.3994 37.4596 10.1066 36.7367 9.80882C35.7033 9.3831 34.6448 8.94706 33.6231 8.57899M33.6231 8.57899C33.6234 8.57909 33.6237 8.57918 33.6239 8.57927L33.2837 9.51957L33.6226 8.57881C33.6228 8.57887 33.623 8.57893 33.6231 8.57899ZM8.99672 32.4142C8.63604 32.1737 8.25573 31.92 7.86518 31.6822L16.5921 36.2427C14.3867 35.4469 12.262 34.4183 10.2105 33.1938L10.208 33.1923C9.83274 32.9697 9.46336 32.7253 9.07321 32.4652C9.04782 32.4483 9.02232 32.4313 8.99672 32.4142ZM41.6543 31.1313C41.4654 31.3291 41.2729 31.5221 41.0768 31.7103C41.1059 31.6586 41.1325 31.6011 41.1544 31.5377C41.1934 31.4327 41.2663 31.3508 41.6543 31.1313ZM44.0658 28.1827C43.8346 28.4977 43.6017 28.8086 43.3657 29.114C43.9031 28.3291 44.4544 27.5212 44.962 26.687L44.9621 26.687L44.966 26.6805C45.278 26.1588 45.4409 25.5214 45.5539 25.0793C45.5682 25.0234 45.5817 24.9705 45.5946 24.9215L45.5954 24.9184C45.7795 24.2093 45.9272 23.4867 46.0202 22.7487C45.9402 23.8861 45.6939 24.9828 45.2993 26.0613L45.2992 26.0615C45.0238 26.8149 44.5909 27.466 44.0658 28.1827ZM26.5229 4.91664C26.5234 4.91653 26.5238 4.91642 26.5242 4.91632L26.5229 4.91664Z" fill="#0156FF" stroke="#0156FF" stroke-width="2"/>
<path d="M8.55085 14.2628C8.45339 14.2602 8.32915 14.2595 8.1906 14.2721C8.1325 14.1836 8.08458 14.1021 8.04587 14.0252C8.30253 13.9828 8.55901 13.9405 8.81534 13.8981C10.312 13.6509 11.8034 13.4045 13.2964 13.1716L13.298 13.1713C13.8009 13.092 14.3075 13.0577 14.8629 13.0201C14.952 13.0141 15.0423 13.008 15.1341 13.0016C15.1341 13.0665 15.134 13.1243 15.1338 13.1767C15.1069 13.1819 15.0783 13.1873 15.0476 13.1932L15.0438 13.194C14.7433 13.2528 14.4459 13.3155 14.1568 13.3765L14.1533 13.3772C13.8612 13.4389 13.5774 13.4987 13.293 13.5544C13.0481 13.6018 12.7139 13.7323 12.4819 14.0694C12.2698 14.3774 12.2545 14.7016 12.2617 14.8853L12.3285 16.7681L12.3953 18.6535L12.3953 18.6535L12.3956 18.6611L12.3957 18.6632C12.4327 19.5224 12.47 20.3869 12.5148 21.2439L12.5148 21.2439L12.5151 21.2491L12.5152 21.2504C12.5819 22.4128 12.6488 23.5788 12.7232 24.7453C12.7495 25.1841 12.7794 25.622 12.809 26.0542L12.8106 26.0776C12.8236 26.2676 12.8366 26.4564 12.8492 26.6444C12.5947 26.6549 12.4038 26.6018 12.2278 26.4864L12.2262 26.4854C12.1981 26.4671 12.1604 26.4379 12.08 26.3713C12.0736 26.3661 12.0668 26.3604 12.0596 26.3544C12.0299 26.3298 11.9934 26.2994 11.9525 26.2667C11.9523 26.2633 11.9522 26.2598 11.952 26.2562C11.9517 26.2496 11.9514 26.2424 11.9511 26.2347C11.9497 26.2025 11.9479 26.1613 11.9457 26.122C11.9428 26.073 11.9386 26.0143 11.9313 25.9509C11.7909 24.5956 11.6583 23.2454 11.548 21.8894L11.548 21.8889C11.4724 20.9651 11.4154 20.038 11.3579 19.1023C11.3427 18.8554 11.3274 18.6079 11.3118 18.3597C11.3118 18.3593 11.3118 18.3589 11.3118 18.3585L11.3065 18.2716C11.2489 17.3176 11.1923 16.3796 11.1495 15.435C11.1415 15.2478 11.093 14.8461 10.741 14.5428C10.4121 14.2593 10.033 14.2573 9.92027 14.2573H9.89628L9.87232 14.2585C9.67763 14.2678 9.51248 14.2683 9.32719 14.2688C9.19012 14.2692 9.04202 14.2696 8.86281 14.2737C8.81105 14.2735 8.77809 14.2719 8.73372 14.2697C8.69163 14.2677 8.63927 14.2651 8.55085 14.2628ZM7.91305 13.4966C7.91333 13.4926 7.91358 13.4952 7.91294 13.5033C7.91297 13.501 7.91301 13.4988 7.91305 13.4966ZM15.4578 13.1049C15.4578 13.1049 15.4572 13.1052 15.4559 13.1056L15.4578 13.1049ZM8.17565 15.2819C7.81188 15.3475 7.58917 15.1754 7.38872 14.8721L8.17565 15.2819Z" fill="#0156FF" stroke="#0156FF" stroke-width="2"/>
<path d="M16.7652 22.8884L16.7651 22.8884L16.7652 22.8884ZM22.3541 20.3849C22.4374 20.8082 22.495 21.2284 22.551 21.6808C22.297 21.7184 22.0422 21.7581 21.7924 21.8032C21.8055 21.7856 21.8159 21.7708 21.8235 21.7597C21.8871 21.6669 21.9317 21.5744 21.9626 21.4966C22.0033 21.3939 22.0958 21.1303 22.042 20.8192C21.9783 20.4237 21.9007 20.0232 21.8268 19.6412C21.8028 19.5172 21.7791 19.395 21.7564 19.2756L21.756 19.2735C21.747 19.2265 21.7355 19.1764 21.7207 19.1244C22.0375 19.385 22.2478 19.7818 22.3504 20.3649L22.3521 20.3749L22.3541 20.3849ZM18.6461 22.4524L19.1326 22.484C18.8916 22.585 18.5779 22.7704 18.3867 23.1373C18.2668 23.3672 18.2368 23.5908 18.2285 23.7481C18.2207 23.8972 18.2304 24.049 18.2396 24.17C18.2554 24.4295 18.2786 24.6855 18.3006 24.9199C18.3111 25.0426 18.3306 25.1961 18.3776 25.3594C18.2357 25.2069 18.1227 25.0435 18.0336 24.8697C17.8046 24.4231 17.6874 23.8167 17.7613 22.976L17.7615 22.9726C17.8398 22.0462 17.9746 21.1312 18.1722 20.2349L18.1722 20.2349L18.1733 20.23C18.3083 19.6028 18.621 19.0604 19.0634 18.6394C19.064 18.6389 19.0694 18.6342 19.0814 18.6266C19.0951 18.618 19.1143 18.6075 19.1394 18.5967C19.1916 18.5742 19.2519 18.5575 19.3072 18.549L19.3072 18.5491L19.3179 18.5473C19.3308 18.5452 19.3438 18.5431 19.3567 18.5411C19.1984 18.7128 19.1106 18.9041 19.0595 19.0592L19.0572 19.0664L19.0549 19.0736C19.0312 19.1493 19.0051 19.2295 18.9775 19.3139C18.7865 19.8989 18.5295 20.6858 18.5884 21.5773L18.6461 22.4524ZM21.4549 26.0621C21.3197 26.1178 21.1782 26.1666 21.0313 26.2093C21.3983 26.0348 21.6995 25.7935 21.9357 25.5732C22.265 25.2711 22.5757 24.9587 22.8741 24.6477C22.6306 25.345 22.1505 25.7807 21.4606 26.0598L21.4605 26.0598L21.4549 26.0621ZM23.2567 24.2456C23.2567 24.2456 23.2557 24.2465 23.2538 24.2481C23.2557 24.2463 23.2567 24.2455 23.2567 24.2456Z" fill="#0156FF" stroke="#0156FF" stroke-width="2"/>
<path d="M27.3182 23.3475L27.3142 23.4454L27.3293 23.5423C27.3528 23.6937 27.3763 23.8537 27.4004 24.0184C27.4463 24.3316 27.4948 24.6619 27.5512 24.9823C27.4687 24.916 27.3927 24.8451 27.3213 24.7663C27.0518 24.4688 26.9021 24.0887 26.8563 23.5638L26.8561 23.5616C26.7988 22.9217 26.7634 22.286 26.7561 21.6538C26.7566 21.4192 26.7908 21.2118 26.8476 21.0612L26.8476 21.0612L26.8496 21.0559C27.1609 20.2166 27.5028 19.3889 27.8578 18.5478L27.8578 18.5478L27.8591 18.5446C27.888 18.4756 27.9269 18.421 28.0406 18.2614C28.0628 18.2303 28.0878 18.1952 28.1161 18.1553L28.1169 18.1542C28.1422 18.1183 28.1625 18.0929 28.1779 18.0753C28.3971 18.0961 28.6148 18.1209 28.8309 18.1503C28.5682 18.2943 28.3163 18.5461 28.2025 18.9076L28.1994 18.9173L28.1966 18.9271C27.7973 20.2903 27.3832 21.7593 27.3182 23.3475ZM30.3445 18.4414C30.5405 18.4913 30.7352 18.5461 30.9286 18.6061L30.6239 19.2517C30.6236 19.2502 30.6232 19.2479 30.6227 19.2448C30.6214 19.2372 30.6199 19.2272 30.6177 19.212C30.6171 19.2081 30.6164 19.2032 30.6156 19.1974C30.6116 19.1697 30.6049 19.1227 30.5976 19.0799C30.5807 18.9804 30.5411 18.7705 30.4176 18.5556C30.3943 18.5148 30.3699 18.4768 30.3445 18.4414ZM30.1446 25.9534C30.1187 25.9601 30.0915 25.966 30.0628 25.971C30.0869 25.9496 30.1106 25.9272 30.1339 25.9037L30.1411 25.8964L30.1481 25.889C30.7389 25.2679 31.2506 24.5748 31.6632 23.7941C31.7011 23.803 31.728 23.8106 31.7497 23.8181L31.763 23.8226L31.7765 23.8268C31.7823 23.8286 31.7876 23.8304 31.7922 23.8322C31.7901 23.8404 31.7872 23.8501 31.7834 23.8612L31.7825 23.8637C31.6531 24.2365 31.4337 24.6202 31.1637 25.0363C31.128 25.0896 31.0701 25.1546 30.9499 25.2703C30.9336 25.286 30.9147 25.3039 30.8939 25.3236C30.7889 25.4232 30.6344 25.5696 30.503 25.724L30.5006 25.7268C30.3892 25.8588 30.2777 25.9188 30.1446 25.9534ZM31.8704 23.3777C31.8705 23.3779 31.8689 23.3812 31.8655 23.3872C31.8656 23.3869 31.8657 23.3867 31.8658 23.3865C31.8688 23.3802 31.8704 23.3775 31.8704 23.3777Z" fill="#0156FF" stroke="#0156FF" stroke-width="2"/>
<path d="M39.5046 18.8954C39.5808 19.1178 39.6117 19.3932 39.5744 19.7236C39.4734 19.7288 39.3729 19.7331 39.2729 19.7362C39.2369 19.6038 39.2021 19.4706 39.1662 19.3333C39.1191 19.1533 39.0702 18.9662 39.0144 18.7643C38.968 18.5932 38.8963 18.393 38.7751 18.207C38.7302 18.138 38.6722 18.0619 38.5994 17.9879C38.6625 18.0173 38.7241 18.0491 38.7842 18.0837L38.7842 18.0837L38.7874 18.0855C39.1908 18.3151 39.4015 18.595 39.5046 18.8954ZM35.9564 20.1504C36.0528 20.8995 36.5154 21.5028 37.1177 21.9414C37.8064 22.4482 38.5352 22.8721 39.2114 23.2655L39.2321 23.2775L39.2321 23.2775L39.2345 23.2789C39.9023 23.6649 39.9707 24.5118 39.3867 24.9954C39.1698 25.175 38.9327 25.3257 38.6736 25.4592C38.7137 25.4228 38.7526 25.3828 38.7898 25.3391L38.7898 25.3391L38.7969 25.3306C39.0136 25.0696 39.0498 24.7803 39.0599 24.6675C39.0731 24.5186 39.0621 24.3787 39.0448 24.2657C39.0153 24.0718 38.9381 23.7677 38.7474 23.512L38.7428 23.5059L38.7382 23.4998C38.4582 23.1361 38.1044 22.7372 37.6819 22.4226L37.6819 22.4225L37.6774 22.4193C37.321 22.1569 36.9027 21.946 36.5838 21.7852C36.5102 21.7481 36.442 21.7137 36.381 21.682L36.381 21.6819L36.3731 21.6779C35.9265 21.4503 35.6643 20.9878 35.4702 20.1076L35.4702 20.1073C35.3467 19.5483 35.5382 19.0782 36.0371 18.5891C36.2672 18.3673 36.5311 18.1786 36.8424 17.9762C36.7707 18.038 36.7084 18.1012 36.6553 18.1599C36.1659 18.7001 35.8585 19.3901 35.9564 20.1504ZM35.2582 24.6418C35.2575 24.6412 35.2576 24.6413 35.2585 24.6421L35.2582 24.6418ZM37.2863 17.705C37.2701 17.7112 37.2541 17.7177 37.2386 17.7243C37.2458 17.7198 37.2531 17.7152 37.2604 17.7106L37.2605 17.7107L37.2646 17.708C37.2662 17.7074 37.2693 17.7061 37.2742 17.7042L37.2863 17.705ZM38.6808 20.741C38.5991 20.741 38.4803 20.6017 38.4506 20.4951C38.4431 20.4705 38.4356 20.4459 38.4282 20.4213C38.4547 20.4401 38.4812 20.4589 38.5078 20.4776C38.5084 20.4779 38.5089 20.4783 38.5095 20.4787C38.5661 20.5184 38.6232 20.5577 38.6808 20.5965C38.6816 20.5971 38.6823 20.5976 38.6831 20.5981L38.6808 20.741Z" fill="#0156FF" stroke="#0156FF" stroke-width="2"/>
</svg>
